HIERARCHY
ROOT hip
{
  OFFSET 0 0 0
  CHANNELS 6 Xposition Yposition Zposition Zrotation Yrotation Xrotation
  JOINT abdomen
  {
    OFFSET 0 20.6881 -0.73152
    CHANNELS 3 Zrotation Xrotation Yrotation
    JOINT chest
    {
      OFFSET 0 11.7043 -0.48768
      CHANNELS 3 Zrotation Xrotation Yrotation
      JOINT neck
      {
        OFFSET 0 22.1894 -2.19456
        CHANNELS 3 Zrotation Xrotation Yrotation
        JOINT head
        {
          OFFSET -0.24384 7.07133 1.2192
          CHANNELS 3 Zrotation Xrotation Yrotation
          JOINT leftEye
          {
            OFFSET 4.14528 8.04674 8.04672
            CHANNELS 3 Zrotation Xrotation Yrotation
            End Site
            {
              OFFSET 1 0 0
            }
          }
          JOINT rightEye
          {
            OFFSET -3.6576 8.04674 8.04672
            CHANNELS 3 Zrotation Xrotation Yrotation
            End Site
            {
              OFFSET 1 0 0
            }
          }
        }
      }
      JOINT rCollar
      {
        OFFSET -2.68224 19.2634 -4.8768
        CHANNELS 3 Zrotation Xrotation Yrotation
        JOINT rShldr
        {
          OFFSET -8.77824 -1.95073 1.46304
          CHANNELS 3 Zrotation Xrotation Yrotation
          JOINT rForeArm
          {
            OFFSET -28.1742 -1.7115 0.48768
            CHANNELS 3 Zrotation Xrotation Yrotation
            JOINT rHand
            {
              OFFSET -22.5879 0.773209 7.07136
              CHANNELS 3 Zrotation Xrotation Yrotation
              JOINT rThumb1
              {
                OFFSET -1.2192 -0.487915 3.41376
                CHANNELS 3 Zrotation Xrotation Yrotation
                JOINT rThumb2
                {
                  OFFSET -3.37035 -0.52449 3.41376
                  CHANNELS 3 Zrotation Xrotation Yrotation
                  End Site
                  {
                    OFFSET -1.78271 -1.18214 1.43049
                  }
                }
              }
              JOINT rIndex1
              {
                OFFSET -7.75947 0.938293 5.60832
                CHANNELS 3 Zrotation Xrotation Yrotation
                JOINT rIndex2
                {
                  OFFSET -2.54057 -0.884171 1.56538
                  CHANNELS 3 Zrotation Xrotation Yrotation
                  End Site
                  {
                    OFFSET -1.62519 -0.234802 1.16502
                  }
                }
              }
              JOINT rMid1
              {
                OFFSET -8.24714 1.18213 3.41376
                CHANNELS 3 Zrotation Xrotation Yrotation
                JOINT rMid2
                {
                  OFFSET -3.10165 -0.590103 1.0647
                  CHANNELS 3 Zrotation Xrotation Yrotation
                  End Site
                  {
                    OFFSET -2.48547 -0.328903 0.83742
                  }
                }
              }
              JOINT rRing1
              {
                OFFSET -8.82822 0.546677 1.51678
                CHANNELS 3 Zrotation Xrotation Yrotation
                JOINT rRing2
                {
                  OFFSET -2.60934 -0.819778 -0.0198488
                  CHANNELS 3 Zrotation Xrotation Yrotation
                  End Site
                  {
                    OFFSET -2.33842 -0.294052 0.168128
                  }
                }
              }
              JOINT rPinky1
              {
                OFFSET -8.27202 -0.0477905 -0.4584
                CHANNELS 3 Zrotation Xrotation Yrotation
                JOINT rPinky2
                {
                  OFFSET -1.82734 -0.647385 -0.700984
                  CHANNELS 3 Zrotation Xrotation Yrotation
                  End Site
                  {
                    OFFSET -1.69225 -0.51767 -0.607171
                  }
                }
              }
            }
          }
        }
      }
      JOINT lCollar
      {
        OFFSET 2.68224 19.2634 -4.8768
        CHANNELS 3 Zrotation Xrotation Yrotation
        JOINT lShldr
        {
          OFFSET 8.77824 -1.95073 1.46304
          CHANNELS 3 Zrotation Xrotation Yrotation
          JOINT lForeArm
          {
            OFFSET 28.1742 -1.7115 0.48768
            CHANNELS 3 Zrotation Xrotation Yrotation
            JOINT lHand
            {
              OFFSET 22.5879 0.773209 7.07136
              CHANNELS 3 Zrotation Xrotation Yrotation
              JOINT lThumb1
              {
                OFFSET 1.2192 -0.487915 3.41376
                CHANNELS 3 Zrotation Xrotation Yrotation
                JOINT lThumb2
                {
                  OFFSET 3.37035 -0.52449 3.41376
                  CHANNELS 3 Zrotation Xrotation Yrotation
                  End Site
                  {
                    OFFSET 1.78271 -1.18214 1.43049
                  }
                }
              }
              JOINT lIndex1
              {
                OFFSET 7.75947 0.938293 5.60832
                CHANNELS 3 Zrotation Xrotation Yrotation
                JOINT lIndex2
                {
                  OFFSET 2.54057 -0.884171 1.56538
                  CHANNELS 3 Zrotation Xrotation Yrotation
                  End Site
                  {
                    OFFSET 1.62519 -0.234802 1.16502
                  }
                }
              }
              JOINT lMid1
              {
                OFFSET 8.24714 1.18213 3.41376
                CHANNELS 3 Zrotation Xrotation Yrotation
                JOINT lMid2
                {
                  OFFSET 3.10165 -0.590103 1.0647
                  CHANNELS 3 Zrotation Xrotation Yrotation
                  End Site
                  {
                    OFFSET 2.48547 -0.328903 0.83742
                  }
                }
              }
              JOINT lRing1
              {
                OFFSET 8.82822 0.546677 1.51678
                CHANNELS 3 Zrotation Xrotation Yrotation
                JOINT lRing2
                {
                  OFFSET 2.60934 -0.819778 -0.0198488
                  CHANNELS 3 Zrotation Xrotation Yrotation
                  End Site
                  {
                    OFFSET 2.33842 -0.294052 0.168128
                  }
                }
              }
              JOINT lPinky1
              {
                OFFSET 8.27202 -0.0477905 -0.4584
                CHANNELS 3 Zrotation Xrotation Yrotation
                JOINT lPinky2
                {
                  OFFSET 1.82734 -0.647385 -0.700984
                  CHANNELS 3 Zrotation Xrotation Yrotation
                  End Site
                  {
                    OFFSET 1.69225 -0.51767 -0.607171
                  }
                }
              }
            }
          }
        }
      }
    }
  }
  JOINT rButtock
  {
    OFFSET -8.77824 4.35084 1.2192
    CHANNELS 3 Zrotation Xrotation Yrotation
    JOINT rThigh
    {
      OFFSET 0 -1.70687 -2.19456
      CHANNELS 3 Zrotation Xrotation Yrotation
      JOINT rShin
      {
        OFFSET 0 -36.8199 0.73152
        CHANNELS 3 Zrotation Xrotation Yrotation
        JOINT rFoot
        {
          OFFSET 0.73152 -45.1104 -5.12064
          CHANNELS 3 Zrotation Xrotation Yrotation
          End Site
          {
            OFFSET -1.1221 -3.69964 12.103
          }
        }
      }
    }
  }
  JOINT lButtock
  {
    OFFSET 8.77824 4.35084 1.2192
    CHANNELS 3 Zrotation Xrotation Yrotation
    JOINT lThigh
    {
      OFFSET 0 -1.70687 -2.19456
      CHANNELS 3 Zrotation Xrotation Yrotation
      JOINT lShin
      {
        OFFSET 0 -36.8199 0.73152
        CHANNELS 3 Zrotation Xrotation Yrotation
        JOINT lFoot
        {
          OFFSET -0.73152 -45.1104 -5.12064
          CHANNELS 3 Zrotation Xrotation Yrotation
          End Site
          {
            OFFSET 1.1221 -3.69964 12.103
          }
        }
      }
    }
  }
}
MOTION
Frames:	4
Frame Time:	0.03333
-3.9727599800244207 61.11239790916443 38.68199974822346 -4.377099835732815 -23.961099325443037 5.102999961003899 -3.5423100599490365 19.199900813526792 4.896610000419508 0.8100769774279084 -13.582299886302147 1.412780020144121 -4.803409934760569 12.19419968750681 3.7184698167103627 10.296400036993855 -28.71439872358416 10.438399669838422 -0.0 0.0 0.0 -0.0 0.0 0.0 1.5354800370149116e-13 4.879090135179595e-14 1.2293600205927882e-13 -5.232239946705234 31.934901219136872 86.35999662029243 -23.306400080287926 -17.87770084116468 47.43830023875818 -0.5167370011619626 20.0462005252791 2.9383800377814544 -1.3909800074825702e-09 -4.263229807529764e-09 -2.3783999062549964e-10 -2.404810039621864e-09 -7.394719662199684e-09 -3.911170085056715e-10 -1.3909800074825702e-09 -4.263250083565859e-09 -2.3785999333267605e-10 7.730910121524428 5.474879855648998 0.41731399283890674 -1.3909800074825702e-09 -4.263229807529764e-09 -2.3784399116693493e-10 2.90554006136521 0.9651829962377875 0.10290200252939893 -1.3909800074825702e-09 -4.263250083565859e-09 -2.3784399116693493e-10 10.278599710243157 0.7318009818271524 0.025912300303053633 -1.3909800074825702e-09 -4.263229807529764e-09 -2.3784100939692105e-10 2.221669932038622 -0.7334870246959406 -0.20891999872313852 1.5360599874000965e-13 4.878770131175217e-14 1.2272400471450186e-13 9.285000138850354 0.37429300581495006 -104.03800151314617 26.102199705701953 -46.07159987640614 -95.70030080085239 -0.05363179929138388 2.9110599214316384 -0.3923339900121867 -1.9824399814370446e-10 -6.075960211692104e-11 -6.210049912254262e-10 -3.355559981675191e-10 -9.929210283912276e-11 -1.0781499918931956e-09 -1.9826299450350115e-10 -6.077380279661211e-11 -6.20970999047268e-10 -7.730910121524428 5.474879855648998 -0.41731399283890674 -1.982419978729868e-10 -6.075689988784598e-11 -6.210000216087364e-10 -2.90554006136521 0.9651829962377875 -0.10290200252939893 -1.9824700476180177e-10 -6.07565023185108e-11 -6.210030033787503e-10 -10.278599710243157 0.7318009818271524 -0.025912300303053633 -1.9823700340821357e-10 -6.0757800630871e-11 -6.210129923082967e-10 -2.221669932038622 -0.7334870246959406 0.20891999872313852 -2.0321699793705798e-16 0.0 -3.882510030490358e-19 -9.41154988379235 -48.73629914334365 -24.91359994105258 -1.9848898985159058 70.67930296529053 2.952749902021515 -6.45794983666258 -15.697999646811434 -18.197900109454874 2.0321699793705798e-16 0.0 3.882510030490358e-19 34.049401427673175 -64.62669668133788 37.282601244892945 4.81048985272211 79.17120202828652 -4.900060099724011 0.7239890063248032 2.9850799621275357 4.195199945304328
-3.952369980470394 61.38569712638855 40.80299974011723 -3.7008001173275393 -28.939600305803236 4.533900061621974 -4.9059998029809835 18.75580020614527 6.668329908382727 -0.38024599592429215 -13.533499892229699 1.7310700371178884 -4.342589878064502 12.195900404610143 4.651799798866972 9.721609736259664 -27.627900041742723 12.008299867545634 -0.0 0.0 0.0 -0.0 0.0 0.0 6.623330047075426e-14 -1.633850056596092e-14 2.820380013271768e-13 -9.440579895312197 33.48669970799626 89.91989804589225 -24.65360025255958 -20.39139999347884 51.976899470529126 -0.6604409796478575 22.495499531456502 3.3352900144137116 -6.536330096022211e-10 -1.6759300758729062e-09 4.214440198108448e-10 -1.1186400432655667e-09 -2.875020063174749e-09 7.344869834753769e-10 -6.536320156788831e-10 -1.6759400151062857e-09 4.2141499724937645e-10 7.730910121524428 5.474879855648998 0.41731399283890674 -6.536330096022211e-10 -1.6759300758729062e-09 4.214390004979881e-10 2.90554006136521 0.9651829962377875 0.10290200252939893 -6.536279902893644e-10 -1.6759400151062857e-09 4.2143800657465017e-10 10.278599710243157 0.7318009818271524 0.025912300303053633 -6.53634003525559e-10 -1.6759300758729062e-09 4.214440198108448e-10 2.221669932038622 -0.7334870246959406 -0.20891999872313852 6.622449808572389e-14 -1.6336700353860466e-14 2.817890109128511e-13 8.847680201767362 2.996020004187192 -98.1188024840622 26.01220001055599 -46.24659956822562 -96.07669886563345 0.31360199924305304 17.415899798549066 -2.5127900968243138 1.90022997310583e-10 1.2484300314677203e-09 5.269499760583554e-10 3.464530009236318e-10 2.1703300068403294e-09 9.054690311035009e-10 1.900129959569948e-10 1.2484399707010998e-09 5.269659782240964e-10 -7.730910121524428 5.474879855648998 -0.41731399283890674 1.90022997310583e-10 1.2484500093268131e-09 5.269530075245361e-10 -2.90554006136521 0.9651829962377875 -0.10290200252939893 1.9001800284580976e-10 1.2484500093268131e-09 5.269499760583554e-10 -10.278599710243157 0.7318009818271524 -0.025912300303053633 1.900300044701156e-10 1.2484300314677203e-09 5.269399871288088e-10 -2.221669932038622 -0.7334870246959406 0.20891999872313852 -2.0321699793705798e-16 0.0 -3.882510030490358e-19 -10.225600003604796 -47.35889928965678 -23.810000173076723 -2.0023600283089174 70.75589670664306 2.9564200614833394 -6.062510058249168 -16.774099365641526 -16.92710072569169 2.0321699793705798e-16 0.0 3.882510030490358e-19 36.5988002712317 -63.198299220213116 38.22829899208915 2.58044995074246 72.32910100836126 -2.6060200445608723 0.11336199701623711 8.115360125563289 3.9064699198413173
-4.03406997975253 61.62689924240112 42.97799967753235 -2.9388000944154102 -33.92170079585603 3.8456001277318097 -6.055469840762178 18.122899509726256 8.42919963396256 -1.4926399793020853 -13.441300022397343 2.0676600518688244 -3.9280601478077277 12.181599696035429 5.5003799400284175 9.195370127693215 -26.30850044694031 13.400800415713752 -0.0 0.0 0.0 -0.0 0.0 0.0 5.788629782128522e-14 1.7227799277159963e-14 -1.7744399789046165e-13 -12.821600374096672 35.97700033976125 92.62429778738047 -26.221200384063795 -24.002900083163514 57.29580000364983 -0.7855279968904132 24.116800317762646 3.611909901034878 1.6174000177396075e-09 4.4984298383773155e-09 -1.7958699856189008e-09 2.7636799757180963e-09 7.702500348447569e-09 -3.1276499312460553e-09 1.6174000177396075e-09 4.49844017518003e-09 -1.7959000021037072e-09 7.730910121524428 5.474879855648998 0.41731399283890674 1.6174000177396075e-09 4.4984298383773155e-09 -1.7958799248522804e-09 2.90554006136521 0.9651829962377875 0.10290200252939893 1.617409956972987e-09 4.4984298383773155e-09 -1.7958799248522804e-09 10.278599710243157 0.7318009818271524 0.025912300303053633 1.6174000177396075e-09 4.4984298383773155e-09 -1.7958699856189008e-09 2.221669932038622 -0.7334870246959406 -0.20891999872313852 5.788080163876453e-14 1.7236399953505108e-14 -1.7765700226205807e-13 6.974359949239734 7.081319857868487 -95.3426994166672 25.846600366581736 -46.56950017633256 -96.75859763161084 1.2017200244364394 29.23300132688489 -4.503880099559299 2.4754100045943152e-09 2.17815993611209e-09 -1.355489986854127e-09 4.227569826010531e-09 3.7099301783396564e-09 -2.4074000050559134e-09 2.475400065360936e-09 2.1781800133635164e-09 -1.3554800476207475e-09 -7.730910121524428 5.474879855648998 -0.41731399283890674 2.475400065360936e-09 2.178170074130137e-09 -1.355489986854127e-09 -2.90554006136521 0.9651829962377875 -0.10290200252939893 2.475400065360936e-09 2.178170074130137e-09 -1.355489986854127e-09 -10.278599710243157 0.7318009818271524 -0.025912300303053633 2.4754100045943152e-09 2.17815993611209e-09 -1.3555000254798406e-09 -2.221669932038622 -0.7334870246959406 0.20891999872313852 -2.0321699793705798e-16 0.0 -3.882510030490358e-19 -11.546900098543762 -46.12220133287218 -23.689100702125618 -2.0316500139040476 70.87080097905017 2.9562300968470483 -5.657960088143429 -17.612899529685162 -15.750600641156995 2.0321699793705798e-16 0.0 3.882510030490358e-19 38.150899288414564 -60.8771004119193 37.88969919417494 1.6178400148310634 65.59680210953313 -1.5954099937618589 -0.5552410186691459 12.87670036390481 4.325490072590552
-4.225879985096981 61.806297302246094 45.253999685519375 -2.134999954113038 -38.82239909138062 3.025800055855271 -6.973830182692235 17.30460015847642 10.175200037719272 -2.5279699788112557 -13.30549963999821 2.4223699181575693 -3.5591900187090766 12.152100109010144 6.264109921791264 8.712199984485574 -24.76439958127553 14.619500824035372 -0.0 0.0 0.0 -0.0 0.0 0.0 1.2850699575308405e-13 1.4949000107323716e-13 -1.2555099834607831e-12 -15.398700757381475 39.62890099838655 94.46829859912216 -27.478600644222706 -28.12760009651544 64.00099671185136 -0.8673090001132964 24.911699440916024 3.755109939626073 5.422120167858587e-09 1.4259899233818463e-08 -6.889780366941229e-09 9.24214961975979e-09 2.433780002667174e-08 -1.1977499798576089e-08 5.422120167858587e-09 1.4259899233818463e-08 -6.889809787072033e-09 7.730910121524428 5.474879855648998 0.41731399283890674 5.422120167858587e-09 1.4259899233818463e-08 -6.889789908605273e-09 2.90554006136521 0.9651829962377875 0.10290200252939893 5.422130107091967e-09 1.4259899233818463e-08 -6.889789908605273e-09 10.278599710243157 0.7318009818271524 0.025912300303053633 5.422120167858587e-09 1.4259899233818463e-08 -6.889780366941229e-09 2.221669932038622 -0.7334870246959406 -0.20891999872313852 1.2857400550156474e-13 1.4950699920063558e-13 -1.25561995564261e-12 2.9349399703172954 14.451500368567862 -87.40089695923487 25.590799536881004 -47.030100813201535 -97.76659694932133 2.20102995414049 38.369301417314894 -6.366009940905507 6.6579000400424556e-09 2.728410009716677e-09 -6.2683401366861115e-09 1.130779981943112e-08 4.519499820434006e-09 -1.1016799739682638e-08 6.6579099792758345e-09 2.728430086968104e-09 -6.2682999821832575e-09 -7.730910121524428 5.474879855648998 -0.41731399283890674 6.6579000400424556e-09 2.7284199489500567e-09 -6.268319860650017e-09 -2.90554006136521 0.9651829962377875 -0.10290200252939893 6.657890100809076e-09 2.7284199489500567e-09 -6.268330197452732e-09 -10.278599710243157 0.7318009818271524 -0.025912300303053633 6.6579000400424556e-09 2.7284199489500567e-09 -6.268330197452732e-09 -2.221669932038622 -0.7334870246959406 0.20891999872313852 -2.0321699793705798e-16 0.0 -3.882510030490358e-19 -13.287399638697677 -45.0396983116952 -24.480000749519952 -2.072659963784685 71.02400212213357 2.9521300623543367 -5.263380059791792 -18.210300317893033 -14.670399393730307 2.0321699793705798e-16 0.0 3.882510030490358e-19 39.021700596267 -57.65620176539473 36.6267015939912 1.0723700086564438 58.982699634292075 -1.0175800454036 -1.4540500508217478 17.25310053213452 5.484650014369879
